<?xml version="1.0" encoding="utf-8"?>
<!-- Generator: Adobe Illustrator 23.1.0, SVG Export Plug-In . SVG Version: 6.00 Build 0)  -->
<svg version="1.1" id="Layer_1" xmlns="http://www.w3.org/2000/svg" xmlns:xlink="http://www.w3.org/1999/xlink" x="0px" y="0px"
	 viewBox="0 0 1000 1000" style="enable-background:new 0 0 1000 1000;" xml:space="preserve">
<style type="text/css">
	.st0{fill:none;stroke:#024089;stroke-width:40;stroke-miterlimit:10;}
	.st1{fill:none;stroke:#024089;stroke-width:30;stroke-miterlimit:10;}
</style>
<path class="st0" d="M802.98,389.52H206.55c-20.71,0-37.5-16.79-37.5-37.5V237.5c0-20.71,16.79-37.5,37.5-37.5h596.43
	c20.71,0,37.5,16.79,37.5,37.5v114.52C840.48,372.73,823.69,389.52,802.98,389.52z"/>
<path class="st0" d="M738.69,800h-474.4c-20.71,0-37.5-16.79-37.5-37.5V427.02c0-20.71,16.79-37.5,37.5-37.5h474.4
	c20.71,0,37.5,16.79,37.5,37.5V762.5C776.19,783.21,759.4,800,738.69,800z"/>
<path class="st1" d="M619.94,578.69H389.58c-20.71,0-37.5-16.79-37.5-37.5v0c0-20.71,16.79-37.5,37.5-37.5h230.36
	c20.71,0,37.5,16.79,37.5,37.5v0C657.44,561.9,640.65,578.69,619.94,578.69z"/>
</svg>
