<svg width="10" height="8" viewBox="0 0 10 8" fill="none" xmlns="http://www.w3.org/2000/svg">
<g clip-path="url(#clip0_1609_7451)">
<path d="M4.44339 7.72603L0.192061 2.45981C-0.101781 2.09583 -0.101781 1.50725 0.192061 1.14713L0.898532 0.272014C1.19237 -0.0919736 1.66752 -0.0919736 1.95824 0.272014L4.97168 4.00483L7.98512 0.272014C8.27896 -0.0919736 8.75411 -0.0919736 9.04483 0.272014L9.7513 1.14713C10.0452 1.51112 10.0452 2.0997 9.7513 2.45981L5.49997 7.72603C5.21238 8.09002 4.73723 8.09002 4.44339 7.72603Z" fill="#B2B2BB"/>
<path d="M4.68802 7.90559C4.61702 7.87709 0.595458 2.93188 0.205658 2.39378C0.062398 2.19603 0.0297852 2.09119 0.0297852 1.82847C0.0297852 1.43735 0.0565773 1.38355 0.581207 0.722634C1.11717 0.0474139 1.33499 -0.0731096 1.68872 0.10981C1.77902 0.15651 2.54548 1.0543 3.39197 2.1049C4.23845 3.1555 4.94901 4.01505 4.97098 4.01505C4.99298 4.01505 5.70431 3.15549 6.55179 2.1049C7.39927 1.0543 8.16654 0.156541 8.25684 0.109841C8.46434 0.00254093 8.56916 0.00300457 8.78034 0.111825C8.94001 0.194425 9.70119 1.09554 9.84772 1.37547C9.94985 1.57058 9.93035 2.05456 9.81165 2.27103C9.66197 2.54394 5.3899 7.82188 5.26428 7.88911C5.15406 7.94811 4.81816 7.95749 4.68805 7.90519L4.68802 7.90559Z" fill="#B2B2BB" stroke="#B2B2BB" stroke-width="0.0596482"/>
</g>
<defs>
<clipPath id="clip0_1609_7451">
<rect width="9.94372" height="7.96936" fill="white"/>
</clipPath>
</defs>
</svg>
