<svg width="23" height="23" viewBox="0 0 23 23" fill="none" xmlns="http://www.w3.org/2000/svg">
<path d="M6.83262 1.71437C7.27285 2.11282 7.30879 2.79429 6.90898 3.23722L3.67641 6.83277C3.4783 7.04839 3.19889 7.17866 2.9033 7.14722C2.60771 7.19663 2.32201 7.07984 2.11268 6.83277L0.315756 5.03589C-0.105252 4.65405 -0.105252 3.97124 0.315756 3.55032C0.736719 3.12941 1.41953 3.12941 1.84045 3.55032L2.83367 4.54175L5.30977 1.79433C5.70508 1.35185 6.38789 1.31591 6.83262 1.71437ZM6.83262 8.90366C7.27285 9.29898 7.30879 9.98179 6.90898 10.4265L3.67641 14.0203C3.4783 14.2359 3.19889 14.3662 2.9033 14.3347C2.60771 14.3841 2.32201 14.2673 2.11268 14.0203L0.315756 12.2234C-0.105252 11.8416 -0.105252 11.1587 0.315756 10.7365C0.736719 10.3187 1.41953 10.3187 1.84045 10.7365L2.83367 11.7293L5.30977 8.98003C5.70508 8.5398 6.38789 8.50386 6.83262 8.90366ZM10.0625 4.31265C10.0625 3.51888 10.7049 2.87515 11.5 2.87515H21.5625C22.3576 2.87515 23 3.51888 23 4.31265C23 5.10777 22.3576 5.75015 21.5625 5.75015H11.5C10.7049 5.75015 10.0625 5.10777 10.0625 4.31265ZM10.0625 11.5001C10.0625 10.705 10.7049 10.0626 11.5 10.0626H21.5625C22.3576 10.0626 23 10.705 23 11.5001C23 12.2953 22.3576 12.9376 21.5625 12.9376H11.5C10.7049 12.9376 10.0625 12.2953 10.0625 11.5001ZM7.1875 18.6876C7.1875 17.8925 7.82988 17.2501 8.625 17.2501H21.5625C22.3576 17.2501 23 17.8925 23 18.6876C23 19.4828 22.3576 20.1251 21.5625 20.1251H8.625C7.82988 20.1251 7.1875 19.4828 7.1875 18.6876ZM0 18.6876C0 17.4972 0.965371 16.5314 2.15625 16.5314C3.34713 16.5314 4.3125 17.4972 4.3125 18.6876C4.3125 19.8781 3.34713 20.8439 2.15625 20.8439C0.965371 20.8439 0 19.8781 0 18.6876Z" fill="#024089"/>
</svg>
