<?xml version="1.0" standalone="no"?>
<!DOCTYPE svg PUBLIC "-//W3C//DTD SVG 20010904//EN"
 "http://www.w3.org/TR/2001/REC-SVG-20010904/DTD/svg10.dtd">
<svg version="1.0" xmlns="http://www.w3.org/2000/svg"
 width="240.000000pt" height="240.000000pt" viewBox="0 0 240.000000 240.000000"
 preserveAspectRatio="xMidYMid meet">
<metadata>
Created by potrace 1.14, written by Peter Selinger 2001-2017
</metadata>
<g transform="translate(0.000000,240.000000) scale(0.100000,-0.100000)"
fill="#000000" stroke="none">
<path d="M790 1891 c-8 -5 -53 -52 -100 -105 -46 -53 -89 -96 -94 -96 -6 0
-29 19 -52 41 -49 48 -83 53 -120 19 -42 -41 -33 -66 63 -162 122 -122 118
-123 269 47 131 146 144 164 144 191 0 50 -67 90 -110 65z"/>
<path d="M1154 1789 c-25 -13 -54 -60 -54 -89 0 -33 26 -75 55 -88 41 -19 757
-17 794 2 66 35 67 131 1 169 -25 15 -70 17 -402 16 -229 0 -381 -4 -394 -10z"/>
<path d="M790 1391 c-8 -5 -53 -52 -100 -105 -46 -53 -89 -96 -94 -96 -6 0
-29 19 -52 41 -49 48 -83 53 -120 19 -43 -42 -33 -67 65 -163 96 -95 117 -103
162 -64 26 22 172 184 222 245 34 42 34 76 2 107 -25 25 -58 31 -85 16z"/>
<path d="M1151 1286 c-67 -37 -65 -143 4 -174 41 -19 757 -17 794 2 66 35 66
137 0 172 -39 20 -762 20 -798 0z"/>
<path d="M478 829 c-24 -12 -46 -35 -59 -61 -55 -107 28 -229 147 -215 144 16
183 202 58 274 -48 28 -97 28 -146 2z"/>
<path d="M951 786 c-67 -37 -65 -143 4 -174 37 -17 953 -17 990 0 29 13 55 55
55 88 0 33 -26 75 -55 88 -40 18 -961 16 -994 -2z"/>
</g>
</svg>
