<svg width="23" height="23" viewBox="0 0 23 23" fill="none" xmlns="http://www.w3.org/2000/svg">
<path d="M6.83262 1.71412C7.27285 2.11258 7.30879 2.79405 6.90898 3.23697L3.67641 6.83252C3.4783 7.04815 3.19889 7.17842 2.9033 7.14698C2.60771 7.19639 2.32201 7.07959 2.11268 6.83252L0.315756 5.03565C-0.105252 4.65381 -0.105252 3.971 0.315756 3.55008C0.736719 3.12916 1.41953 3.12916 1.84045 3.55008L2.83367 4.54151L5.30977 1.79408C5.70508 1.3516 6.38789 1.31567 6.83262 1.71412ZM6.83262 8.90342C7.27285 9.29873 7.30879 9.98155 6.90898 10.4263L3.67641 14.02C3.4783 14.2356 3.19889 14.3659 2.9033 14.3345C2.60771 14.3839 2.32201 14.2671 2.11268 14.02L0.315756 12.2231C-0.105252 11.8413 -0.105252 11.1585 0.315756 10.7362C0.736719 10.3185 1.41953 10.3185 1.84045 10.7362L2.83367 11.729L5.30977 8.97979C5.70508 8.53955 6.38789 8.50362 6.83262 8.90342ZM10.0625 4.3124C10.0625 3.51864 10.7049 2.8749 11.5 2.8749H21.5625C22.3576 2.8749 23 3.51864 23 4.3124C23 5.10752 22.3576 5.7499 21.5625 5.7499H11.5C10.7049 5.7499 10.0625 5.10752 10.0625 4.3124ZM10.0625 11.4999C10.0625 10.7048 10.7049 10.0624 11.5 10.0624H21.5625C22.3576 10.0624 23 10.7048 23 11.4999C23 12.295 22.3576 12.9374 21.5625 12.9374H11.5C10.7049 12.9374 10.0625 12.295 10.0625 11.4999ZM7.1875 18.6874C7.1875 17.8923 7.82988 17.2499 8.625 17.2499H21.5625C22.3576 17.2499 23 17.8923 23 18.6874C23 19.4825 22.3576 20.1249 21.5625 20.1249H8.625C7.82988 20.1249 7.1875 19.4825 7.1875 18.6874ZM0 18.6874C0 17.497 0.965371 16.5312 2.15625 16.5312C3.34713 16.5312 4.3125 17.497 4.3125 18.6874C4.3125 19.8778 3.34713 20.8437 2.15625 20.8437C0.965371 20.8437 0 19.8778 0 18.6874Z" fill="#777781"/>
</svg>
