<svg width="23" height="20" viewBox="0 0 23 20" fill="none" xmlns="http://www.w3.org/2000/svg">
<path d="M6.83262 0.276867C7.27285 0.675324 7.30879 1.35679 6.90898 1.79972L3.67641 5.39527C3.4783 5.61089 3.19889 5.74116 2.9033 5.70972C2.60771 5.75913 2.32201 5.64234 2.11268 5.39527L0.315756 3.59839C-0.105252 3.21655 -0.105252 2.53374 0.315756 2.11282C0.736719 1.69191 1.41953 1.69191 1.84045 2.11282L2.83367 3.10425L5.30977 0.356828C5.70508 -0.0856521 6.38789 -0.12159 6.83262 0.276867ZM6.83262 7.46616C7.27285 7.86148 7.30879 8.54429 6.90898 8.98902L3.67641 12.5828C3.4783 12.7984 3.19889 12.9287 2.9033 12.8972C2.60771 12.9466 2.32201 12.8298 2.11268 12.5828L0.315756 10.7859C-0.105252 10.4041 -0.105252 9.72124 0.315756 9.29898C0.736719 8.8812 1.41953 8.8812 1.84045 9.29898L2.83367 10.2918L5.30977 7.54253C5.70508 7.1023 6.38789 7.06636 6.83262 7.46616ZM10.0625 2.87515C10.0625 2.08138 10.7049 1.43765 11.5 1.43765H21.5625C22.3576 1.43765 23 2.08138 23 2.87515C23 3.67027 22.3576 4.31265 21.5625 4.31265H11.5C10.7049 4.31265 10.0625 3.67027 10.0625 2.87515ZM10.0625 10.0626C10.0625 9.26753 10.7049 8.62515 11.5 8.62515H21.5625C22.3576 8.62515 23 9.26753 23 10.0626C23 10.8578 22.3576 11.5001 21.5625 11.5001H11.5C10.7049 11.5001 10.0625 10.8578 10.0625 10.0626ZM7.1875 17.2501C7.1875 16.455 7.82988 15.8126 8.625 15.8126H21.5625C22.3576 15.8126 23 16.455 23 17.2501C23 18.0453 22.3576 18.6876 21.5625 18.6876H8.625C7.82988 18.6876 7.1875 18.0453 7.1875 17.2501ZM0 17.2501C0 16.0597 0.965371 15.0939 2.15625 15.0939C3.34713 15.0939 4.3125 16.0597 4.3125 17.2501C4.3125 18.4406 3.34713 19.4064 2.15625 19.4064C0.965371 19.4064 0 18.4406 0 17.2501Z" fill="#44BD32"/>
</svg>
