<svg width="27" height="25" viewBox="0 0 27 25" fill="none" xmlns="http://www.w3.org/2000/svg">
<g clip-path="url(#clip0_1663_40522)">
<path d="M14.0408 8.53057C14.9425 8.53057 15.6735 7.7996 15.6735 6.89791C15.6735 5.99622 14.9425 5.26526 14.0408 5.26526C13.1391 5.26526 12.4082 5.99622 12.4082 6.89791C12.4082 7.7996 13.1391 8.53057 14.0408 8.53057Z" fill="#024089"/>
<path d="M14.0408 11.1428V15.0612" stroke="#024089" stroke-width="3" stroke-miterlimit="10" stroke-linecap="round"/>
<path d="M6.6112 16.6767C6.42949 16.4477 6.20939 16.1476 5.98417 15.7812C5.61819 15.1885 5.41089 14.7027 5.35714 14.5729C5.18055 14.1532 5.09098 13.8377 4.96557 13.4027C4.82737 12.9245 4.725 12.5658 4.65078 12.0774C4.57144 11.5406 4.57144 11.126 4.57144 10.7902C4.57144 10.3069 4.60727 9.8846 4.65078 9.54372C4.67893 9.31986 4.72756 8.94083 4.84785 8.45241C4.97581 7.93092 5.11913 7.55443 5.23942 7.24408C5.41345 6.79382 5.55677 6.41987 5.82805 5.95689C6.1019 5.48882 6.36294 5.17084 6.6112 4.86558C6.76987 4.67224 7.04883 4.34663 7.43529 3.97014C7.64003 3.77172 7.93947 3.48172 8.37711 3.15102C8.84034 2.80251 9.22935 2.5812 9.3957 2.48962C9.49807 2.43365 9.83334 2.25304 10.2966 2.05971C10.4245 2.00629 10.8033 1.8562 11.3152 1.70866C11.4303 1.67559 11.8168 1.56875 12.3338 1.47462C12.6409 1.41866 12.8712 1.37796 13.1962 1.35761C13.4675 1.3398 13.6723 1.34743 14.0203 1.35761C14.2456 1.36524 14.4503 1.37032 14.7267 1.39576C14.9187 1.41357 15.1976 1.44155 15.5508 1.51278C15.8733 1.57892 16.1036 1.65015 16.4133 1.74682C16.6078 1.80787 16.8791 1.8969 17.1964 2.01901C17.3909 2.09532 17.6673 2.19962 18.0205 2.37006C18.1408 2.42857 18.3839 2.54813 18.6859 2.72111C18.9188 2.85593 19.6943 3.35707 19.8223 3.46137C19.9963 3.60128 20.0935 3.63181 20.3571 3.8633C20.6489 4.12023 20.5696 4.09988 20.7615 4.27795C20.9688 4.47128 21.107 4.63409 21.2324 4.78417C21.3732 4.95207 21.4832 5.1047 21.7033 5.40742C21.9209 5.71014 22.0309 5.86022 22.1358 6.03066C22.274 6.25961 22.3662 6.44277 22.4506 6.61575C22.5505 6.81671 22.5505 6.83452 22.7654 7.31785C22.9804 7.79864 22.9881 7.79864 23.0393 7.94109C23.1237 8.17259 23.1647 8.34557 23.2363 8.6432C23.2901 8.8696 23.3464 9.10618 23.3925 9.42162C23.4283 9.66074 23.4411 9.87951 23.4718 10.3171C23.4974 10.7012 23.5102 10.8945 23.5102 11.1362C23.5102 11.388 23.5127 11.65 23.4718 11.9935C23.4564 12.113 23.4181 12.4208 23.3157 12.8126C23.2645 13.0084 23.2543 13.011 23.0802 13.5528C22.8857 14.1659 22.9088 14.1303 22.8448 14.2931C22.7245 14.5984 22.6042 14.812 22.4123 15.1504C22.2126 15.504 22.0412 15.7609 21.9797 15.8525C21.8518 16.0433 21.6854 16.29 21.432 16.5927C21.3527 16.6894 21.1147 16.9667 20.7666 17.2948C20.6207 17.4322 20.4749 17.5543 20.178 17.8011C19.8709 18.058 19.7173 18.1877 19.551 18.3073C19.2541 18.5235 19.0238 18.6507 18.8062 18.7754C18.4761 18.9611 17.9949 19.2409 17.3551 19.6326" stroke="#024089" stroke-width="3" stroke-miterlimit="10" stroke-linecap="round"/>
<path d="M9.76477 19.5051C9.9629 19.6176 10.182 19.7266 10.4156 19.8223C10.8371 19.9967 11.2028 20.0848 11.5031 20.1299" stroke="#024089" stroke-width="3" stroke-miterlimit="10" stroke-linecap="round"/>
</g>
<defs>
<clipPath id="clip0_1663_40522">
<rect width="27" height="24.8571" fill="white"/>
</clipPath>
</defs>
</svg>
