<svg width="11" height="8" viewBox="0 0 11 8" fill="none" xmlns="http://www.w3.org/2000/svg">
<path d="M5.53108 0.272394L9.77976 5.53638C10.0734 5.90021 10.0734 6.48854 9.77976 6.8485L9.07373 7.72326C8.78007 8.08709 8.30522 8.08709 8.01468 7.72326L5 3.99589L1.98844 7.72712C1.69478 8.09096 1.21993 8.09096 0.929397 7.72712L0.220244 6.85238C-0.0734146 6.48854 -0.0734146 5.90021 0.220244 5.54025L4.46892 0.276264C4.76257 -0.0914403 5.23743 -0.0914406 5.53108 0.272394V0.272394Z" fill="#024089"/>
<path d="M1.15937 7.86438C0.970046 7.74283 0.174628 6.76477 0.0952178 6.55588C0.00931777 6.33006 0.0314126 5.98768 0.146213 5.76236C0.276983 5.50587 4.18413 0.649142 4.53955 0.301272C4.82215 0.0246924 5.0826 -0.03089 5.31925 0.13486C5.43037 0.21266 6.27744 1.24658 8.98844 4.61328C9.55502 5.31689 9.88426 5.77862 9.93125 5.93546C10.0497 6.33083 9.93023 6.62042 9.36902 7.29367C8.83895 7.93005 8.64631 8.04501 8.32968 7.91385C8.21612 7.86685 7.62876 7.18811 6.59616 5.91074C5.73719 4.84816 5.01631 3.97969 4.9942 3.98081C4.9721 3.98181 4.29741 4.8016 3.49491 5.80231C2.69242 6.80302 1.94777 7.69989 1.84018 7.79535C1.61575 7.99447 1.39658 8.01669 1.15934 7.86435L1.15937 7.86438Z" fill="#B2B2BA" stroke="#B2B2BB" stroke-width="0.0596482"/>
</svg>
